<svg viewBox="0 0 800 600" xmlns="http://www.w3.org/2000/svg" role="img" aria-label="Animated high-resolution pixel clouds drifting across a soft blue sky">
  <defs>
    <linearGradient id="sky" x1="0" y1="0" x2="0" y2="1">
      <stop offset="0%" stop-color="#7ea9cf"/>
      <stop offset="100%" stop-color="#90b7d9"/>
    </linearGradient>

    <filter id="soften" x="-10%" y="-10%" width="120%" height="120%">
      <feGaussianBlur stdDeviation="0.25"/>
    </filter>

    <g id="cloud-a" filter="url(#soften)">
      <g fill="#dcecf8">
        <rect x="30" y="0"  width="6" height="6"/><rect x="36" y="0"  width="6" height="6"/><rect x="42" y="0"  width="6" height="6"/><rect x="48" y="0"  width="6" height="6"/>
        <rect x="18" y="6"  width="6" height="6"/><rect x="24" y="6"  width="6" height="6"/><rect x="30" y="6"  width="6" height="6"/><rect x="36" y="6"  width="6" height="6"/><rect x="42" y="6"  width="6" height="6"/><rect x="48" y="6"  width="6" height="6"/><rect x="54" y="6"  width="6" height="6"/><rect x="60" y="6"  width="6" height="6"/>
        <rect x="12" y="12" width="6" height="6"/><rect x="18" y="12" width="6" height="6"/><rect x="24" y="12" width="6" height="6"/><rect x="30" y="12" width="6" height="6"/><rect x="36" y="12" width="6" height="6"/><rect x="42" y="12" width="6" height="6"/><rect x="48" y="12" width="6" height="6"/><rect x="54" y="12" width="6" height="6"/><rect x="60" y="12" width="6" height="6"/><rect x="66" y="12" width="6" height="6"/><rect x="72" y="12" width="6" height="6"/>
        <rect x="6"  y="18" width="6" height="6"/><rect x="12" y="18" width="6" height="6"/><rect x="18" y="18" width="6" height="6"/><rect x="24" y="18" width="6" height="6"/><rect x="30" y="18" width="6" height="6"/><rect x="36" y="18" width="6" height="6"/><rect x="42" y="18" width="6" height="6"/><rect x="48" y="18" width="6" height="6"/><rect x="54" y="18" width="6" height="6"/><rect x="60" y="18" width="6" height="6"/><rect x="66" y="18" width="6" height="6"/><rect x="72" y="18" width="6" height="6"/><rect x="78" y="18" width="6" height="6"/>
        <rect x="12" y="24" width="6" height="6"/><rect x="18" y="24" width="6" height="6"/><rect x="24" y="24" width="6" height="6"/><rect x="30" y="24" width="6" height="6"/><rect x="36" y="24" width="6" height="6"/><rect x="42" y="24" width="6" height="6"/><rect x="48" y="24" width="6" height="6"/><rect x="54" y="24" width="6" height="6"/><rect x="60" y="24" width="6" height="6"/><rect x="66" y="24" width="6" height="6"/><rect x="72" y="24" width="6" height="6"/>
        <rect x="18" y="30" width="6" height="6"/><rect x="24" y="30" width="6" height="6"/><rect x="30" y="30" width="6" height="6"/><rect x="36" y="30" width="6" height="6"/><rect x="42" y="30" width="6" height="6"/><rect x="48" y="30" width="6" height="6"/><rect x="54" y="30" width="6" height="6"/><rect x="60" y="30" width="6" height="6"/>
      </g>
      <g fill="#f8fcff">
        <rect x="30" y="6"  width="6" height="6"/><rect x="36" y="6"  width="6" height="6"/><rect x="42" y="6"  width="6" height="6"/><rect x="48" y="6"  width="6" height="6"/>
        <rect x="24" y="12" width="6" height="6"/><rect x="30" y="12" width="6" height="6"/><rect x="36" y="12" width="6" height="6"/><rect x="42" y="12" width="6" height="6"/><rect x="48" y="12" width="6" height="6"/><rect x="54" y="12" width="6" height="6"/>
        <rect x="24" y="18" width="6" height="6"/><rect x="30" y="18" width="6" height="6"/><rect x="36" y="18" width="6" height="6"/><rect x="42" y="18" width="6" height="6"/><rect x="48" y="18" width="6" height="6"/><rect x="54" y="18" width="6" height="6"/>
        <rect x="30" y="24" width="6" height="6"/><rect x="36" y="24" width="6" height="6"/><rect x="42" y="24" width="6" height="6"/><rect x="48" y="24" width="6" height="6"/>
      </g>
      <g fill="#c7dff1">
        <rect x="12" y="18" width="6" height="6"/><rect x="18" y="24" width="6" height="6"/><rect x="66" y="24" width="6" height="6"/><rect x="72" y="18" width="6" height="6"/><rect x="60" y="30" width="6" height="6"/>
      </g>
    </g>

    <g id="cloud-b" filter="url(#soften)">
      <g fill="#dcecf8">
        <rect x="24" y="0"  width="6" height="6"/><rect x="30" y="0"  width="6" height="6"/><rect x="36" y="0"  width="6" height="6"/><rect x="42" y="0"  width="6" height="6"/><rect x="48" y="0"  width="6" height="6"/>
        <rect x="12" y="6"  width="6" height="6"/><rect x="18" y="6"  width="6" height="6"/><rect x="24" y="6"  width="6" height="6"/><rect x="30" y="6"  width="6" height="6"/><rect x="36" y="6"  width="6" height="6"/><rect x="42" y="6"  width="6" height="6"/><rect x="48" y="6"  width="6" height="6"/><rect x="54" y="6"  width="6" height="6"/><rect x="60" y="6"  width="6" height="6"/><rect x="66" y="6"  width="6" height="6"/>
        <rect x="6"  y="12" width="6" height="6"/><rect x="12" y="12" width="6" height="6"/><rect x="18" y="12" width="6" height="6"/><rect x="24" y="12" width="6" height="6"/><rect x="30" y="12" width="6" height="6"/><rect x="36" y="12" width="6" height="6"/><rect x="42" y="12" width="6" height="6"/><rect x="48" y="12" width="6" height="6"/><rect x="54" y="12" width="6" height="6"/><rect x="60" y="12" width="6" height="6"/><rect x="66" y="12" width="6" height="6"/><rect x="72" y="12" width="6" height="6"/><rect x="78" y="12" width="6" height="6"/>
        <rect x="12" y="18" width="6" height="6"/><rect x="18" y="18" width="6" height="6"/><rect x="24" y="18" width="6" height="6"/><rect x="30" y="18" width="6" height="6"/><rect x="36" y="18" width="6" height="6"/><rect x="42" y="18" width="6" height="6"/><rect x="48" y="18" width="6" height="6"/><rect x="54" y="18" width="6" height="6"/><rect x="60" y="18" width="6" height="6"/><rect x="66" y="18" width="6" height="6"/><rect x="72" y="18" width="6" height="6"/>
        <rect x="24" y="24" width="6" height="6"/><rect x="30" y="24" width="6" height="6"/><rect x="36" y="24" width="6" height="6"/><rect x="42" y="24" width="6" height="6"/><rect x="48" y="24" width="6" height="6"/><rect x="54" y="24" width="6" height="6"/><rect x="60" y="24" width="6" height="6"/>
      </g>
      <g fill="#f9fdff">
        <rect x="24" y="6"  width="6" height="6"/><rect x="30" y="6"  width="6" height="6"/><rect x="36" y="6"  width="6" height="6"/><rect x="42" y="6"  width="6" height="6"/><rect x="48" y="6"  width="6" height="6"/>
        <rect x="18" y="12" width="6" height="6"/><rect x="24" y="12" width="6" height="6"/><rect x="30" y="12" width="6" height="6"/><rect x="36" y="12" width="6" height="6"/><rect x="42" y="12" width="6" height="6"/><rect x="48" y="12" width="6" height="6"/><rect x="54" y="12" width="6" height="6"/>
        <rect x="24" y="18" width="6" height="6"/><rect x="30" y="18" width="6" height="6"/><rect x="36" y="18" width="6" height="6"/><rect x="42" y="18" width="6" height="6"/><rect x="48" y="18" width="6" height="6"/><rect x="54" y="18" width="6" height="6"/>
      </g>
      <g fill="#c7dff1">
        <rect x="12" y="12" width="6" height="6"/><rect x="12" y="18" width="6" height="6"/><rect x="66" y="18" width="6" height="6"/><rect x="72" y="12" width="6" height="6"/><rect x="60" y="24" width="6" height="6"/>
      </g>
    </g>

    <g id="cloud-c" filter="url(#soften)">
      <g fill="#dcecf8">
        <rect x="30" y="0"  width="6" height="6"/><rect x="36" y="0"  width="6" height="6"/>
        <rect x="18" y="6"  width="6" height="6"/><rect x="24" y="6"  width="6" height="6"/><rect x="30" y="6"  width="6" height="6"/><rect x="36" y="6"  width="6" height="6"/><rect x="42" y="6"  width="6" height="6"/><rect x="48" y="6"  width="6" height="6"/>
        <rect x="12" y="12" width="6" height="6"/><rect x="18" y="12" width="6" height="6"/><rect x="24" y="12" width="6" height="6"/><rect x="30" y="12" width="6" height="6"/><rect x="36" y="12" width="6" height="6"/><rect x="42" y="12" width="6" height="6"/><rect x="48" y="12" width="6" height="6"/><rect x="54" y="12" width="6" height="6"/>
        <rect x="6"  y="18" width="6" height="6"/><rect x="12" y="18" width="6" height="6"/><rect x="18" y="18" width="6" height="6"/><rect x="24" y="18" width="6" height="6"/><rect x="30" y="18" width="6" height="6"/><rect x="36" y="18" width="6" height="6"/><rect x="42" y="18" width="6" height="6"/><rect x="48" y="18" width="6" height="6"/><rect x="54" y="18" width="6" height="6"/><rect x="60" y="18" width="6" height="6"/>
        <rect x="18" y="24" width="6" height="6"/><rect x="24" y="24" width="6" height="6"/><rect x="30" y="24" width="6" height="6"/><rect x="36" y="24" width="6" height="6"/><rect x="42" y="24" width="6" height="6"/><rect x="48" y="24" width="6" height="6"/>
        <rect x="24" y="30" width="6" height="6"/><rect x="30" y="30" width="6" height="6"/><rect x="36" y="30" width="6" height="6"/><rect x="42" y="30" width="6" height="6"/>
      </g>
      <g fill="#f9fdff">
        <rect x="24" y="6"  width="6" height="6"/><rect x="30" y="6"  width="6" height="6"/><rect x="36" y="6"  width="6" height="6"/><rect x="42" y="6"  width="6" height="6"/>
        <rect x="18" y="12" width="6" height="6"/><rect x="24" y="12" width="6" height="6"/><rect x="30" y="12" width="6" height="6"/><rect x="36" y="12" width="6" height="6"/><rect x="42" y="12" width="6" height="6"/><rect x="48" y="12" width="6" height="6"/>
        <rect x="24" y="18" width="6" height="6"/><rect x="30" y="18" width="6" height="6"/><rect x="36" y="18" width="6" height="6"/><rect x="42" y="18" width="6" height="6"/>
        <rect x="24" y="24" width="6" height="6"/><rect x="30" y="24" width="6" height="6"/><rect x="36" y="24" width="6" height="6"/>
      </g>
      <g fill="#c7dff1">
        <rect x="12" y="18" width="6" height="6"/><rect x="18" y="24" width="6" height="6"/><rect x="48" y="24" width="6" height="6"/><rect x="54" y="18" width="6" height="6"/>
      </g>
    </g>

    <g id="cloud-d" filter="url(#soften)">
      <g fill="#dcecf8">
        <rect x="24" y="0"  width="6" height="6"/><rect x="30" y="0"  width="6" height="6"/><rect x="36" y="0"  width="6" height="6"/>
        <rect x="12" y="6"  width="6" height="6"/><rect x="18" y="6"  width="6" height="6"/><rect x="24" y="6"  width="6" height="6"/><rect x="30" y="6"  width="6" height="6"/><rect x="36" y="6"  width="6" height="6"/><rect x="42" y="6"  width="6" height="6"/><rect x="48" y="6"  width="6" height="6"/><rect x="54" y="6"  width="6" height="6"/>
        <rect x="6"  y="12" width="6" height="6"/><rect x="12" y="12" width="6" height="6"/><rect x="18" y="12" width="6" height="6"/><rect x="24" y="12" width="6" height="6"/><rect x="30" y="12" width="6" height="6"/><rect x="36" y="12" width="6" height="6"/><rect x="42" y="12" width="6" height="6"/><rect x="48" y="12" width="6" height="6"/><rect x="54" y="12" width="6" height="6"/><rect x="60" y="12" width="6" height="6"/>
        <rect x="12" y="18" width="6" height="6"/><rect x="18" y="18" width="6" height="6"/><rect x="24" y="18" width="6" height="6"/><rect x="30" y="18" width="6" height="6"/><rect x="36" y="18" width="6" height="6"/><rect x="42" y="18" width="6" height="6"/><rect x="48" y="18" width="6" height="6"/><rect x="54" y="18" width="6" height="6"/>
        <rect x="24" y="24" width="6" height="6"/><rect x="30" y="24" width="6" height="6"/><rect x="36" y="24" width="6" height="6"/><rect x="42" y="24" width="6" height="6"/>
      </g>
      <g fill="#f9fdff">
        <rect x="24" y="6"  width="6" height="6"/><rect x="30" y="6"  width="6" height="6"/><rect x="36" y="6"  width="6" height="6"/>
        <rect x="18" y="12" width="6" height="6"/><rect x="24" y="12" width="6" height="6"/><rect x="30" y="12" width="6" height="6"/><rect x="36" y="12" width="6" height="6"/><rect x="42" y="12" width="6" height="6"/>
        <rect x="18" y="18" width="6" height="6"/><rect x="24" y="18" width="6" height="6"/><rect x="30" y="18" width="6" height="6"/><rect x="36" y="18" width="6" height="6"/><rect x="42" y="18" width="6" height="6"/>
      </g>
      <g fill="#c7dff1">
        <rect x="12" y="18" width="6" height="6"/><rect x="48" y="18" width="6" height="6"/><rect x="42" y="24" width="6" height="6"/>
      </g>
    </g>

    <!-- smaller filler cloud -->
    <g id="cloud-e" filter="url(#soften)">
      <g fill="#dcecf8">
        <rect x="18" y="0" width="6" height="6"/><rect x="24" y="0" width="6" height="6"/><rect x="30" y="0" width="6" height="6"/>
        <rect x="6" y="6" width="6" height="6"/><rect x="12" y="6" width="6" height="6"/><rect x="18" y="6" width="6" height="6"/><rect x="24" y="6" width="6" height="6"/><rect x="30" y="6" width="6" height="6"/><rect x="36" y="6" width="6" height="6"/><rect x="42" y="6" width="6" height="6"/>
        <rect x="0" y="12" width="6" height="6"/><rect x="6" y="12" width="6" height="6"/><rect x="12" y="12" width="6" height="6"/><rect x="18" y="12" width="6" height="6"/><rect x="24" y="12" width="6" height="6"/><rect x="30" y="12" width="6" height="6"/><rect x="36" y="12" width="6" height="6"/><rect x="42" y="12" width="6" height="6"/><rect x="48" y="12" width="6" height="6"/>
        <rect x="12" y="18" width="6" height="6"/><rect x="18" y="18" width="6" height="6"/><rect x="24" y="18" width="6" height="6"/><rect x="30" y="18" width="6" height="6"/><rect x="36" y="18" width="6" height="6"/>
      </g>
      <g fill="#f9fdff">
        <rect x="18" y="6" width="6" height="6"/><rect x="24" y="6" width="6" height="6"/><rect x="30" y="6" width="6" height="6"/>
        <rect x="12" y="12" width="6" height="6"/><rect x="18" y="12" width="6" height="6"/><rect x="24" y="12" width="6" height="6"/><rect x="30" y="12" width="6" height="6"/><rect x="36" y="12" width="6" height="6"/>
      </g>
      <g fill="#c7dff1">
        <rect x="6" y="12" width="6" height="6"/><rect x="36" y="18" width="6" height="6"/>
      </g>
    </g>
  </defs>

  <rect width="800" height="600" fill="url(#sky)"/>
  <rect width="800" height="600" fill="#000000" opacity="0.035"/>
  <rect y="310" width="800" height="290" fill="#ffffff" opacity="0.03"/>

  <!-- far layer -->
  <g opacity="0.42">
    <use href="#cloud-d" transform="translate(-90 70) scale(1.35)">
      <animateTransform attributeName="transform" type="translate" from="-90 70" to="900 70" dur="80s" begin="-63s" repeatCount="indefinite"/>
    </use>
    <use href="#cloud-c" transform="translate(170 120) scale(1.25)">
      <animateTransform attributeName="transform" type="translate" from="-180 120" to="940 120" dur="92s" begin="-51s" repeatCount="indefinite"/>
    </use>
    <use href="#cloud-a" transform="translate(520 90) scale(1.15)">
      <animateTransform attributeName="transform" type="translate" from="-260 90" to="980 90" dur="88s" begin="-71s" repeatCount="indefinite"/>
    </use>
    <use href="#cloud-e" transform="translate(690 55) scale(1.05)">
      <animateTransform attributeName="transform" type="translate" from="-160 55" to="930 55" dur="74s" begin="-29s" repeatCount="indefinite"/>
    </use>
    <use href="#cloud-e" transform="translate(40 145) scale(0.95)">
      <animateTransform attributeName="transform" type="translate" from="-220 145" to="910 145" dur="86s" begin="-60s" repeatCount="indefinite"/>
    </use>
  </g>

  <!-- mid layer -->
  <g opacity="0.62">
    <use href="#cloud-b" transform="translate(40 190) scale(1.7)">
      <animateTransform attributeName="transform" type="translate" from="-240 190" to="980 190" dur="62s" begin="-45s" repeatCount="indefinite"/>
    </use>
    <use href="#cloud-a" transform="translate(430 250) scale(1.55)">
      <animateTransform attributeName="transform" type="translate" from="-320 250" to="1020 250" dur="66s" begin="-54s" repeatCount="indefinite"/>
    </use>
    <use href="#cloud-d" transform="translate(690 210) scale(1.45)">
      <animateTransform attributeName="transform" type="translate" from="-220 210" to="1040 210" dur="72s" begin="-39s" repeatCount="indefinite"/>
    </use>
    <use href="#cloud-c" transform="translate(240 305) scale(1.25)">
      <animateTransform attributeName="transform" type="translate" from="-280 305" to="1010 305" dur="58s" begin="-16s" repeatCount="indefinite"/>
    </use>
    <use href="#cloud-e" transform="translate(610 285) scale(1.2)">
      <animateTransform attributeName="transform" type="translate" from="-170 285" to="990 285" dur="64s" begin="-47s" repeatCount="indefinite"/>
    </use>
  </g>

  <!-- near layer -->
  <g opacity="0.82">
    <use href="#cloud-c" transform="translate(-40 360) scale(2.2)">
      <animateTransform attributeName="transform" type="translate" from="-260 360" to="1040 360" dur="42s" begin="-31s" repeatCount="indefinite"/>
    </use>
    <use href="#cloud-b" transform="translate(280 430) scale(2.5)">
      <animateTransform attributeName="transform" type="translate" from="-340 430" to="1080 430" dur="38s" begin="-24s" repeatCount="indefinite"/>
    </use>
    <use href="#cloud-a" transform="translate(660 340) scale(2.05)">
      <animateTransform attributeName="transform" type="translate" from="-300 340" to="1100 340" dur="46s" begin="-35s" repeatCount="indefinite"/>
    </use>
    <use href="#cloud-d" transform="translate(70 500) scale(1.7)">
      <animateTransform attributeName="transform" type="translate" from="-220 500" to="1050 500" dur="40s" begin="-18s" repeatCount="indefinite"/>
    </use>
    <use href="#cloud-e" transform="translate(520 525) scale(1.55)">
      <animateTransform attributeName="transform" type="translate" from="-180 525" to="1030 525" dur="34s" begin="-22s" repeatCount="indefinite"/>
    </use>
  </g>
</svg>