<svg height="640" shape-rendering="crispEdges" viewBox="0 0 640 640" width="640" xmlns="http://www.w3.org/2000/svg" xmlns:xlink="http://www.w3.org/1999/xlink"><clipPath id="a"><circle cx="320" cy="320" r="320"/></clipPath><g clip-path="url(#a)"><g fill="#16191e"><path d="m220 70h10v10h-10z"/><path d="m210 120h10v10h-10z"/><path d="m150 150h10v10h-10z"/><path d="m420 160h10v10h-10z"/><path d="m220 170h10v10h-10z"/><path d="m140 200h10v10h-10z"/><path d="m310 210h10v10h-10z"/><path d="m120 220h10v10h-10z"/><path d="m200 220h10v10h-10z"/><path d="m170 230h10v10h-10z"/><path d="m120 280h10v10h-10z"/><path d="m170 350h10v10h-10z"/><path d="m200 350h10v10h-10z"/><path d="m140 370h10v10h-10z"/><path d="m240 380h10v10h-10z"/><path d="m240 390h10v10h-10z"/><path d="m260 420h10v10h-10z"/><path d="m270 420h10v10h-10z"/><path d="m310 450h10v10h-10z"/><path d="m330 450h10v10h-10z"/><path d="m400 450h10v10h-10z"/><path d="m130 460h10v10h-10z"/><path d="m440 460h10v10h-10z"/><path d="m160 470h10v10h-10z"/><path d="m390 470h10v10h-10z"/><path d="m150 500h10v10h-10z"/><path d="m440 500h10v10h-10z"/><path d="m140 510h10v10h-10z"/><path d="m440 510h10v10h-10z"/><path d="m450 520h10v10h-10z"/></g><g fill="#151a1d"><path d="m230 70h10v10h-10z"/><path d="m220 100h10v10h-10z"/><path d="m150 120h10v10h-10z"/><path d="m170 150h10v10h-10z"/><path d="m220 180h10v10h-10z"/><path d="m200 200h10v10h-10z"/><path d="m390 500h10v10h-10z"/><path d="m410 500h10v10h-10z"/></g><g fill="#161a1f"><path d="m240 70h10v10h-10z"/><path d="m160 110h10v10h-10z"/><path d="m160 120h10v10h-10z"/><path d="m160 130h10v10h-10z"/><path d="m140 140h10v10h-10z"/><path d="m180 170h10v10h-10z"/><path d="m170 190h10v10h-10z"/><path d="m170 210h10v10h-10z"/><path d="m190 210h10v10h-10z"/><path d="m350 230h10v10h-10z"/><path d="m270 240h10v10h-10z"/><path d="m90 480h10v10h-10z"/><path d="m160 480h10v10h-10z"/><path d="m180 480h10v10h-10z"/><path d="m120 490h10v10h-10z"/><path d="m360 490h10v10h-10z"/><path d="m180 500h10v10h-10z"/><path d="m400 500h10v10h-10z"/><path d="m370 510h10v10h-10z"/><path d="m130 520h10v10h-10z"/></g><g fill="#161a1c"><path d="m250 70h10v10h-10z"/><path d="m180 120h10v10h-10z"/><path d="m360 340h10v10h-10z"/><path d="m300 350h10v10h-10z"/><path d="m390 510h10v10h-10z"/></g><g fill="#16191d"><path d="m260 70h10v10h-10z"/><path d="m200 80h10v10h-10z"/><path d="m260 80h10v10h-10z"/><path d="m170 110h10v10h-10z"/><path d="m200 190h10v10h-10z"/><path d="m340 210h10v10h-10z"/><path d="m180 270h10v10h-10z"/><path d="m380 350h10v10h-10z"/><path d="m130 390h10v10h-10z"/><path d="m240 400h10v10h-10z"/><path d="m260 410h10v10h-10z"/><path d="m360 430h10v10h-10z"/><path d="m320 450h10v10h-10z"/><path d="m390 460h10v10h-10z"/><path d="m410 460h10v10h-10z"/><path d="m130 470h10v10h-10z"/><path d="m180 490h10v10h-10z"/><path d="m200 500h10v10h-10z"/><path d="m270 520h10v10h-10z"/></g><g fill="#17181e"><path d="m270 70h10v10h-10z"/><path d="m230 80h10v10h-10z"/><path d="m330 80h10v10h-10z"/><path d="m190 140h10v10h-10z"/><path d="m140 400h10v10h-10z"/><path d="m310 410h10v10h-10z"/><path d="m300 420h10v10h-10z"/></g><g fill="#17181f"><path d="m280 70h10v10h-10z"/><path d="m360 460h10v10h-10z"/><path d="m110 490h10v10h-10z"/></g><g fill="#15191e" opacity=".996"><path d="m290 70h10v10h-10z"/><path d="m190 170h10v10h-10z"/><path d="m250 210h10v10h-10z"/><path d="m120 240h10v10h-10z"/><path d="m360 420h10v10h-10z"/></g><g fill="#161920"><path d="m300 70h10v10h-10z"/><path d="m170 360h10v10h-10z"/><path d="m370 470h10v10h-10z"/></g><g fill="#18191e"><path d="m310 70h10v10h-10z"/><path d="m350 110h10v10h-10z"/><path d="m350 440h10v10h-10z"/><path d="m410 480h10v10h-10z"/><path d="m110 510h10v10h-10z"/><path d="m160 510h10v10h-10z"/></g><g fill="#151a20"><path d="m320 70h10v10h-10z"/><path d="m150 190h10v10h-10z"/><path d="m220 240h10v10h-10z"/></g><g fill="#16181d" opacity=".996"><path d="m330 70h10v10h-10z"/><path d="m230 510h10v10h-10z"/></g><path d="m190 80h10v10h-10z" fill="#43494e" opacity=".996"/><g fill="#15181d"><path d="m210 80h10v10h-10z"/><path d="m340 90h10v10h-10z"/><path d="m230 100h10v10h-10z"/><path d="m200 150h10v10h-10z"/><path d="m200 170h10v10h-10z"/><path d="m200 340h10v10h-10z"/><path d="m250 400h10v10h-10z"/><path d="m270 410h10v10h-10z"/><path d="m360 470h10v10h-10z"/><path d="m150 510h10v10h-10z"/></g><path d="m220 80h10v10h-10z" fill="#42494b"/><g fill="#15191d" opacity=".996"><path d="m240 80h10v10h-10z"/><path d="m130 220h10v10h-10z"/><path d="m380 230h10v10h-10z"/></g><path d="m250 80h10v10h-10z" fill="#18191c"/><g fill="#181a1f"><path d="m270 80h10v10h-10z"/><path d="m190 130h10v10h-10z"/><path d="m200 140h10v10h-10z"/><path d="m420 310h10v10h-10z"/><path d="m340 350h10v10h-10z"/><path d="m120 480h10v10h-10z"/></g><path d="m280 80h10v10h-10z" fill="#18181d"/><g fill="#43484a"><path d="m290 80h10v10h-10z"/><path d="m400 290h10v10h-10z"/></g><g fill="#44484b" opacity=".996"><path d="m300 80h10v10h-10z"/><path d="m190 110h10v10h-10z"/></g><path d="m310 80h10v10h-10z" fill="#42464c" opacity=".996"/><g fill="#43484d"><path d="m320 80h10v10h-10z"/><path d="m320 110h10v10h-10z"/><path d="m290 250h10v10h-10z"/></g><path d="m340 80h10v10h-10z" fill="#14171d" opacity=".996"/><path d="m350 80h10v10h-10z" fill="#404548" opacity=".996"/><path d="m360 80h10v10h-10z" fill="#101115"/><path d="m170 90h10v10h-10z" fill="#2c2e34" opacity=".063"/><path d="m180 90h10v10h-10z" fill="#3b3d42" opacity=".051"/><path d="m190 90h10v10h-10z" fill="#4a5054"/><path d="m200 90h10v10h-10z" fill="#03050a" opacity=".996"/><path d="m210 90h10v10h-10z" fill="#04050a"/><path d="m220 90h10v10h-10z" fill="#4c5155"/><g fill="#16181c"><path d="m230 90h10v10h-10z"/><path d="m180 150h10v10h-10z"/></g><g fill="#171a1d"><path d="m240 90h10v10h-10z"/><path d="m270 90h10v10h-10z"/><path d="m160 150h10v10h-10z"/><path d="m150 200h10v10h-10z"/><path d="m150 210h10v10h-10z"/><path d="m360 230h10v10h-10z"/><path d="m220 370h10v10h-10z"/><path d="m260 400h10v10h-10z"/><path d="m380 480h10v10h-10z"/><path d="m390 480h10v10h-10z"/><path d="m440 480h10v10h-10z"/><path d="m440 490h10v10h-10z"/><path d="m140 500h10v10h-10z"/><path d="m380 500h10v10h-10z"/><path d="m180 520h10v10h-10z"/><path d="m330 520h10v10h-10z"/><path d="m460 520h10v10h-10z"/></g><g fill="#16181e"><path d="m250 90h10v10h-10z"/><path d="m240 110h10v10h-10z"/><path d="m190 120h10v10h-10z"/><path d="m130 170h10v10h-10z"/><path d="m260 210h10v10h-10z"/><path d="m370 340h10v10h-10z"/><path d="m400 470h10v10h-10z"/><path d="m100 500h10v10h-10z"/><path d="m490 500h10v10h-10z"/><path d="m190 520h10v10h-10z"/><path d="m490 520h10v10h-10z"/></g><g fill="#161a1e"><path d="m260 90h10v10h-10z"/><path d="m370 110h10v10h-10z"/><path d="m200 120h10v10h-10z"/><path d="m150 130h10v10h-10z"/><path d="m200 130h10v10h-10z"/><path d="m140 190h10v10h-10z"/><path d="m130 200h10v10h-10z"/><path d="m180 200h10v10h-10z"/><path d="m130 210h10v10h-10z"/><path d="m280 210h10v10h-10z"/><path d="m320 210h10v10h-10z"/><path d="m330 210h10v10h-10z"/><path d="m230 220h10v10h-10z"/><path d="m370 230h10v10h-10z"/><path d="m380 330h10v10h-10z"/><path d="m330 420h10v10h-10z"/><path d="m290 430h10v10h-10z"/><path d="m150 440h10v10h-10z"/><path d="m410 450h10v10h-10z"/><path d="m150 470h10v10h-10z"/><path d="m380 470h10v10h-10z"/><path d="m420 470h10v10h-10z"/><path d="m460 480h10v10h-10z"/><path d="m90 490h10v10h-10z"/><path d="m80 500h10v10h-10z"/><path d="m430 510h10v10h-10z"/></g><g fill="#16191f"><path d="m280 90h10v10h-10z"/><path d="m400 120h10v10h-10z"/><path d="m150 180h10v10h-10z"/><path d="m180 210h10v10h-10z"/><path d="m170 220h10v10h-10z"/><path d="m380 220h10v10h-10z"/><path d="m300 230h10v10h-10z"/><path d="m140 270h10v10h-10z"/><path d="m390 280h10v10h-10z"/><path d="m400 310h10v10h-10z"/><path d="m370 350h10v10h-10z"/><path d="m270 430h10v10h-10z"/><path d="m340 440h10v10h-10z"/><path d="m150 460h10v10h-10z"/><path d="m370 460h10v10h-10z"/><path d="m130 490h10v10h-10z"/><path d="m460 490h10v10h-10z"/><path d="m370 500h10v10h-10z"/><path d="m480 500h10v10h-10z"/><path d="m90 510h10v10h-10z"/><path d="m220 510h10v10h-10z"/></g><g fill="#474b4f"><path d="m290 90h10v10h-10z"/><path d="m320 360h10v10h-10z"/></g><path d="m300 90h10v10h-10z" fill="#495154"/><path d="m310 90h10v10h-10z" fill="#4a5052"/><path d="m320 90h10v10h-10z" fill="#474e53"/><g fill="#15171e"><path d="m330 90h10v10h-10z"/><path d="m320 520h10v10h-10z"/></g><path d="m350 90h10v10h-10z" fill="#484d50"/><path d="m360 90h10v10h-10z" fill="#0b0f12"/><path d="m380 90h10v10h-10z" fill="#22262a" opacity=".051"/><path d="m170 100h10v10h-10z" fill="#010308"/><g fill="#141a1d"><path d="m180 100h10v10h-10z"/><path d="m190 490h10v10h-10z"/></g><path d="m190 100h10v10h-10z" fill="#16181f" opacity=".996"/><path d="m200 100h10v10h-10z" fill="#41474c"/><path d="m210 100h10v10h-10z" fill="#41484b"/><g fill="#15191f"><path d="m240 100h10v10h-10z"/><path d="m140 340h10v10h-10z"/><path d="m310 440h10v10h-10z"/><path d="m140 450h10v10h-10z"/></g><path d="m250 100h10v10h-10z" fill="#16181c" opacity=".996"/><path d="m260 100h10v10h-10z" fill="#15181b"/><g fill="#16191c"><path d="m270 100h10v10h-10z"/><path d="m310 100h10v10h-10z"/><path d="m350 500h10v10h-10z"/><path d="m340 510h10v10h-10z"/></g><path d="m280 100h10v10h-10z" fill="#14181b" opacity=".992"/><path d="m290 100h10v10h-10z" fill="#151a1c" opacity=".996"/><g fill="#161a1e" opacity=".996"><path d="m300 100h10v10h-10z"/><path d="m300 410h10v10h-10z"/><path d="m310 420h10v10h-10z"/><path d="m410 470h10v10h-10z"/></g><g fill="#16181d"><path d="m320 100h10v10h-10z"/><path d="m190 240h10v10h-10z"/><path d="m340 460h10v10h-10z"/></g><g fill="#15191c"><path d="m330 100h10v10h-10z"/><path d="m140 360h10v10h-10z"/></g><g fill="#17181d"><path d="m340 100h10v10h-10z"/><path d="m200 210h10v10h-10z"/><path d="m170 340h10v10h-10z"/><path d="m380 340h10v10h-10z"/><path d="m390 370h10v10h-10z"/><path d="m170 470h10v10h-10z"/><path d="m150 490h10v10h-10z"/><path d="m500 490h10v10h-10z"/></g><path d="m350 100h10v10h-10z" fill="#14191c"/><path d="m360 100h10v10h-10z" fill="#424649"/><g fill="#000002"><path d="m370 100h10v10h-10z"/><path d="m170 330h10v10h-10z"/><path d="m180 350h10v10h-10z"/></g><path d="m380 100h10v10h-10z" fill="#000104" opacity=".973"/><path d="m180 110h10v10h-10z" fill="#000204"/><g fill="#17191e" opacity=".996"><path d="m200 110h10v10h-10z"/><path d="m160 430h10v10h-10z"/><path d="m460 500h10v10h-10z"/><path d="m170 520h10v10h-10z"/></g><g fill="#17191f"><path d="m210 110h10v10h-10z"/><path d="m180 130h10v10h-10z"/><path d="m210 140h10v10h-10z"/><path d="m290 210h10v10h-10z"/><path d="m420 220h10v10h-10z"/><path d="m280 240h10v10h-10z"/><path d="m340 260h10v10h-10z"/><path d="m150 270h10v10h-10z"/><path d="m420 300h10v10h-10z"/><path d="m410 310h10v10h-10z"/><path d="m140 330h10v10h-10z"/><path d="m350 390h10v10h-10z"/><path d="m290 400h10v10h-10z"/><path d="m280 410h10v10h-10z"/><path d="m120 470h10v10h-10z"/><path d="m100 480h10v10h-10z"/><path d="m500 480h10v10h-10z"/><path d="m160 490h10v10h-10z"/><path d="m410 490h10v10h-10z"/><path d="m130 500h10v10h-10z"/><path d="m310 500h10v10h-10z"/><path d="m100 510h10v10h-10z"/><path d="m120 510h10v10h-10z"/><path d="m400 510h10v10h-10z"/><path d="m530 510h10v10h-10z"/><path d="m160 520h10v10h-10z"/><path d="m260 520h10v10h-10z"/></g><g fill="#17191e"><path d="m220 110h10v10h-10z"/><path d="m210 130h10v10h-10z"/><path d="m180 140h10v10h-10z"/><path d="m170 200h10v10h-10z"/><path d="m150 280h10v10h-10z"/><path d="m400 300h10v10h-10z"/><path d="m210 350h10v10h-10z"/><path d="m310 350h10v10h-10z"/><path d="m210 370h10v10h-10z"/><path d="m130 380h10v10h-10z"/><path d="m300 390h10v10h-10z"/><path d="m290 410h10v10h-10z"/><path d="m280 420h10v10h-10z"/><path d="m300 430h10v10h-10z"/><path d="m420 450h10v10h-10z"/><path d="m130 480h10v10h-10z"/><path d="m150 480h10v10h-10z"/><path d="m170 480h10v10h-10z"/><path d="m420 480h10v10h-10z"/><path d="m430 500h10v10h-10z"/><path d="m350 510h10v10h-10z"/><path d="m410 510h10v10h-10z"/><path d="m80 520h10v10h-10z"/><path d="m220 520h10v10h-10z"/><path d="m280 520h10v10h-10z"/></g><g fill="#17181e" opacity=".996"><path d="m230 110h10v10h-10z"/><path d="m190 220h10v10h-10z"/></g><path d="m250 110h10v10h-10z" fill="#16191c" opacity=".996"/><path d="m310 110h10v10h-10z" fill="#404144" opacity=".004"/><g fill="#43494b" opacity=".996"><path d="m330 110h10v10h-10z"/><path d="m320 220h10v10h-10z"/></g><g fill="#171a1c"><path d="m340 110h10v10h-10z"/><path d="m210 360h10v10h-10z"/><path d="m210 520h10v10h-10z"/></g><path d="m360 110h10v10h-10z" fill="#151b1c"/><g fill="#16191e" opacity=".996"><path d="m380 110h10v10h-10z"/><path d="m250 220h10v10h-10z"/><path d="m140 230h10v10h-10z"/><path d="m340 240h10v10h-10z"/><path d="m410 280h10v10h-10z"/><path d="m150 430h10v10h-10z"/><path d="m140 480h10v10h-10z"/></g><g fill="#181a1e"><path d="m390 110h10v10h-10z"/><path d="m160 200h10v10h-10z"/><path d="m160 210h10v10h-10z"/><path d="m320 350h10v10h-10z"/><path d="m500 500h10v10h-10z"/><path d="m390 520h10v10h-10z"/></g><g fill="#161b1e"><path d="m170 120h10v10h-10z"/><path d="m180 260h10v10h-10z"/><path d="m420 340h10v10h-10z"/><path d="m390 420h10v10h-10z"/><path d="m380 450h10v10h-10z"/><path d="m170 490h10v10h-10z"/><path d="m380 510h10v10h-10z"/><path d="m420 510h10v10h-10z"/><path d="m120 520h10v10h-10z"/></g><g fill="#151a1e"><path d="m220 120h10v10h-10z"/><path d="m400 280h10v10h-10z"/><path d="m180 330h10v10h-10z"/><path d="m390 330h10v10h-10z"/><path d="m340 340h10v10h-10z"/><path d="m320 430h10v10h-10z"/><path d="m160 500h10v10h-10z"/><path d="m450 500h10v10h-10z"/><path d="m80 510h10v10h-10z"/><path d="m470 510h10v10h-10z"/></g><path d="m230 120h10v10h-10z" fill="#080a0c" opacity=".973"/><path d="m390 120h10v10h-10z" fill="#171b1d" opacity=".996"/><g fill="#16191f" opacity=".996"><path d="m170 130h10v10h-10z"/><path d="m340 220h10v10h-10z"/><path d="m110 470h10v10h-10z"/></g><g fill="#16191d" opacity=".996"><path d="m400 130h10v10h-10z"/><path d="m190 260h10v10h-10z"/><path d="m380 440h10v10h-10z"/><path d="m340 470h10v10h-10z"/><path d="m300 520h10v10h-10z"/></g><g fill="#17191d"><path d="m150 140h10v10h-10z"/><path d="m180 240h10v10h-10z"/><path d="m330 440h10v10h-10z"/><path d="m150 450h10v10h-10z"/><path d="m430 480h10v10h-10z"/><path d="m490 480h10v10h-10z"/><path d="m170 500h10v10h-10z"/><path d="m320 500h10v10h-10z"/><path d="m200 510h10v10h-10z"/></g><g fill="#171a1e"><path d="m160 140h10v10h-10z"/><path d="m440 220h10v10h-10z"/><path d="m350 240h10v10h-10z"/><path d="m390 240h10v10h-10z"/><path d="m270 280h10v10h-10z"/><path d="m390 380h10v10h-10z"/><path d="m390 390h10v10h-10z"/><path d="m390 400h10v10h-10z"/><path d="m250 410h10v10h-10z"/><path d="m290 420h10v10h-10z"/><path d="m450 470h10v10h-10z"/><path d="m370 480h10v10h-10z"/><path d="m400 480h10v10h-10z"/><path d="m450 480h10v10h-10z"/><path d="m380 520h10v10h-10z"/></g><path d="m170 140h10v10h-10z" fill="#18181c"/><g fill="#171a1f"><path d="m400 140h10v10h-10z"/><path d="m180 180h10v10h-10z"/><path d="m220 220h10v10h-10z"/><path d="m290 230h10v10h-10z"/><path d="m300 280h10v10h-10z"/><path d="m420 290h10v10h-10z"/><path d="m230 380h10v10h-10z"/><path d="m360 390h10v10h-10z"/><path d="m160 450h10v10h-10z"/><path d="m430 460h10v10h-10z"/><path d="m480 480h10v10h-10z"/><path d="m90 500h10v10h-10z"/><path d="m510 500h10v10h-10z"/><path d="m210 510h10v10h-10z"/><path d="m460 510h10v10h-10z"/><path d="m510 510h10v10h-10z"/><path d="m400 520h10v10h-10z"/></g><path d="m410 140h10v10h-10z" fill="#161b1e" opacity=".992"/><g fill="#17181f" opacity=".996"><path d="m140 150h10v10h-10z"/><path d="m150 220h10v10h-10z"/></g><path d="m190 150h10v10h-10z" fill="#14181d"/><path d="m210 150h10v10h-10z" fill="#17171e"/><path d="m220 150h10v10h-10z" fill="#606366" opacity=".996"/><path d="m230 150h10v10h-10z" fill="#6d6f71" opacity=".988"/><path d="m410 150h10v10h-10z" fill="#171a1d" opacity=".992"/><path d="m140 160h10v10h-10z" fill="#15181f" opacity=".996"/><g fill="#181a1c"><path d="m150 160h10v10h-10z"/><path d="m420 240h10v10h-10z"/><path d="m380 460h10v10h-10z"/></g><g fill="#151b1e"><path d="m160 160h10v10h-10z"/><path d="m230 400h10v10h-10z"/><path d="m380 490h10v10h-10z"/><path d="m190 500h10v10h-10z"/></g><path d="m170 160h10v10h-10z" fill="#5d6166"/><path d="m180 160h10v10h-10z" fill="#474a4e"/><path d="m190 160h10v10h-10z" fill="#15161b"/><path d="m200 160h10v10h-10z" fill="#44464c" opacity=".996"/><g fill="#43464b"><path d="m210 160h10v10h-10z"/><path d="m270 200h10v10h-10z"/></g><path d="m220 160h10v10h-10z" fill="#43464c"/><path d="m230 160h10v10h-10z" fill="#4a4d52" opacity=".984"/><path d="m410 160h10v10h-10z" fill="#171a1f" opacity=".992"/><path d="m120 170h10v10h-10z" fill="#2e2e32" opacity=".024"/><path d="m140 170h10v10h-10z" fill="#424749" opacity=".996"/><path d="m150 170h10v10h-10z" fill="#15181f"/><path d="m160 170h10v10h-10z" fill="#42484c"/><path d="m170 170h10v10h-10z" fill="#080910"/><path d="m210 170h10v10h-10z" fill="#42484d"/><path d="m230 170h10v10h-10z" fill="#040308" opacity=".984"/><g fill="#171c1f"><path d="m420 170h10v10h-10z"/><path d="m290 280h10v10h-10z"/></g><path d="m130 180h10v10h-10z" fill="#0a0e12" opacity=".973"/><path d="m140 180h10v10h-10z" fill="#474c4e"/><path d="m160 180h10v10h-10z" fill="#434b4f"/><path d="m170 180h10v10h-10z" fill="#0e0f16"/><path d="m190 180h10v10h-10z" fill="#17181d" opacity=".992"/><g fill="#161a1d" opacity=".996"><path d="m200 180h10v10h-10z"/><path d="m330 350h10v10h-10z"/></g><path d="m210 180h10v10h-10z" fill="#45494e" opacity=".996"/><path d="m230 180h10v10h-10z" fill="#000203" opacity=".973"/><g fill="#181b1f" opacity=".996"><path d="m420 180h10v10h-10z"/><path d="m430 260h10v10h-10z"/></g><g fill="#181b1d"><path d="m160 190h10v10h-10z"/><path d="m430 240h10v10h-10z"/><path d="m470 500h10v10h-10z"/><path d="m500 510h10v10h-10z"/></g><g fill="#181b1e"><path d="m180 190h10v10h-10z"/><path d="m420 280h10v10h-10z"/><path d="m410 520h10v10h-10z"/></g><g fill="#161a1d"><path d="m190 190h10v10h-10z"/><path d="m210 190h10v10h-10z"/><path d="m390 220h10v10h-10z"/><path d="m380 240h10v10h-10z"/><path d="m310 280h10v10h-10z"/><path d="m190 290h10v10h-10z"/><path d="m150 350h10v10h-10z"/><path d="m300 370h10v10h-10z"/><path d="m160 460h10v10h-10z"/><path d="m170 460h10v10h-10z"/><path d="m450 460h10v10h-10z"/><path d="m440 470h10v10h-10z"/><path d="m100 490h10v10h-10z"/><path d="m130 510h10v10h-10z"/><path d="m440 520h10v10h-10z"/></g><path d="m220 190h10v10h-10z" fill="#16171c" opacity=".988"/><path d="m230 190h10v10h-10z" fill="#010405" opacity=".988"/><path d="m420 190h10v10h-10z" fill="#181c1e" opacity=".996"/><g fill="#161b1d"><path d="m190 200h10v10h-10z"/><path d="m150 340h10v10h-10z"/><path d="m480 490h10v10h-10z"/><path d="m470 520h10v10h-10z"/></g><g fill="#15181e"><path d="m210 200h10v10h-10z"/><path d="m270 210h10v10h-10z"/><path d="m350 220h10v10h-10z"/></g><g fill="#43474b"><path d="m280 200h10v10h-10z"/><path d="m330 410h10v10h-10z"/><path d="m340 500h10v10h-10z"/></g><path d="m290 200h10v10h-10z" fill="#7c7f80" opacity=".996"/><path d="m300 200h10v10h-10z" fill="#7d7f80" opacity=".992"/><path d="m310 200h10v10h-10z" fill="#7f8081" opacity=".996"/><path d="m320 200h10v10h-10z" fill="#7e7f80"/><path d="m330 200h10v10h-10z" fill="#7a7c7d" opacity=".988"/><g fill="#171b1e"><path d="m420 200h10v10h-10z"/><path d="m420 210h10v10h-10z"/><path d="m390 290h10v10h-10z"/><path d="m160 440h10v10h-10z"/><path d="m420 500h10v10h-10z"/><path d="m360 510h10v10h-10z"/></g><path d="m120 210h10v10h-10z" fill="#292d32" opacity=".004"/><path d="m140 210h10v10h-10z" fill="#151b1f"/><path d="m240 210h10v10h-10z" fill="#262a30" opacity=".275"/><g fill="#151a1f"><path d="m300 210h10v10h-10z"/><path d="m150 260h10v10h-10z"/><path d="m220 360h10v10h-10z"/><path d="m400 490h10v10h-10z"/></g><g fill="#44494c"><path d="m390 210h10v10h-10z"/><path d="m410 300h10v10h-10z"/></g><g fill="#18191f"><path d="m400 210h10v10h-10z"/><path d="m210 220h10v10h-10z"/><path d="m420 330h10v10h-10z"/><path d="m140 390h10v10h-10z"/><path d="m350 450h10v10h-10z"/><path d="m430 470h10v10h-10z"/></g><g fill="#17191f" opacity=".996"><path d="m410 210h10v10h-10z"/><path d="m220 390h10v10h-10z"/><path d="m420 460h10v10h-10z"/><path d="m110 520h10v10h-10z"/></g><g opacity=".992"><path d="m110 220h10v10h-10z"/><path d="m150 250h10v10h-10z"/><path d="m290 360h10v10h-10z"/><path d="m170 380h10v10h-10z"/></g><g fill="#15191e"><path d="m160 220h10v10h-10z"/><path d="m180 220h10v10h-10z"/><path d="m410 220h10v10h-10z"/><path d="m240 240h10v10h-10z"/><path d="m330 280h10v10h-10z"/><path d="m130 290h10v10h-10z"/><path d="m160 350h10v10h-10z"/><path d="m360 350h10v10h-10z"/><path d="m320 420h10v10h-10z"/><path d="m140 470h10v10h-10z"/><path d="m390 490h10v10h-10z"/><path d="m200 520h10v10h-10z"/></g><path d="m240 220h10v10h-10z" fill="#141b1f"/><path d="m260 220h10v10h-10z" fill="#303238" opacity=".953"/><path d="m330 220h10v10h-10z" fill="#43484d" opacity=".996"/><g fill="#15191d"><path d="m400 220h10v10h-10z"/><path d="m210 240h10v10h-10z"/><path d="m130 300h10v10h-10z"/><path d="m200 330h10v10h-10z"/><path d="m340 450h10v10h-10z"/><path d="m390 450h10v10h-10z"/><path d="m450 490h10v10h-10z"/></g><g fill="#161a1f" opacity=".996"><path d="m430 220h10v10h-10z"/><path d="m340 250h10v10h-10z"/><path d="m390 430h10v10h-10z"/></g><path d="m450 220h10v10h-10z" fill="#282a30" opacity=".012"/><path d="m110 230h10v10h-10z" fill="#000001" opacity=".992"/><path d="m120 230h10v10h-10z" fill="#14171c" opacity=".996"/><g fill="#43474c"><path d="m150 230h10v10h-10z"/><path d="m350 420h10v10h-10z"/><path d="m350 480h10v10h-10z"/></g><path d="m160 230h10v10h-10z" fill="#0c1214"/><g fill="#161b1f" opacity=".996"><path d="m180 230h10v10h-10z"/><path d="m320 280h10v10h-10z"/></g><g fill="#16171d"><path d="m190 230h10v10h-10z"/><path d="m170 410h10v10h-10z"/></g><path d="m200 230h10v10h-10z" fill="#44484c" opacity=".996"/><path d="m210 230h10v10h-10z" fill="#45484c" opacity=".996"/><path d="m220 230h10v10h-10z" fill="#45484b" opacity=".992"/><path d="m230 230h10v10h-10z" fill="#43474c" opacity=".996"/><path d="m240 230h10v10h-10z" fill="#33373c"/><path d="m250 230h10v10h-10z" fill="#181a20" opacity=".98"/><g fill="#171a20"><path d="m280 230h10v10h-10z"/><path d="m230 240h10v10h-10z"/><path d="m430 250h10v10h-10z"/><path d="m360 520h10v10h-10z"/></g><path d="m310 230h10v10h-10z" fill="#181b1f"/><path d="m340 230h10v10h-10z" fill="#42484d" opacity=".996"/><g fill="#45494c"><path d="m390 230h10v10h-10z"/><path d="m410 230h10v10h-10z"/><path d="m350 410h10v10h-10z"/></g><path d="m400 230h10v10h-10z" fill="#44474d"/><g fill="#171b1f"><path d="m420 230h10v10h-10z"/><path d="m310 240h10v10h-10z"/><path d="m420 270h10v10h-10z"/><path d="m300 360h10v10h-10z"/><path d="m300 400h10v10h-10z"/><path d="m290 450h10v10h-10z"/><path d="m520 510h10v10h-10z"/><path d="m240 520h10v10h-10z"/><path d="m350 520h10v10h-10z"/><path d="m500 520h10v10h-10z"/></g><g fill="#171920"><path d="m440 230h10v10h-10z"/><path d="m180 250h10v10h-10z"/><path d="m400 460h10v10h-10z"/><path d="m320 490h10v10h-10z"/><path d="m150 520h10v10h-10z"/></g><path d="m450 230h10v10h-10z" fill="#262b2d" opacity=".008"/><path d="m110 240h10v10h-10z" opacity=".988"/><g fill="#16171e"><path d="m140 240h10v10h-10z"/><path d="m140 460h10v10h-10z"/><path d="m420 490h10v10h-10z"/></g><path d="m160 240h10v10h-10z" fill="#494c52"/><path d="m170 240h10v10h-10z" fill="#05060a"/><path d="m250 240h10v10h-10z" fill="#17181e" opacity=".976"/><path d="m290 240h10v10h-10z" fill="#42474d"/><g fill="#43474d"><path d="m320 240h10v10h-10z"/><path d="m390 340h10v10h-10z"/><path d="m200 360h10v10h-10z"/></g><path d="m360 240h10v10h-10z" fill="#43484b"/><path d="m370 240h10v10h-10z" fill="#45474c"/><g fill="#161c1f"><path d="m440 240h10v10h-10z"/><path d="m360 450h10v10h-10z"/></g><path d="m450 240h10v10h-10z" fill="#292a30" opacity=".004"/><g opacity=".984"><path d="m110 250h10v10h-10z"/><path d="m110 260h10v10h-10z"/><path d="m290 370h10v10h-10z"/></g><path d="m120 250h10v10h-10z" fill="#15181e" opacity=".992"/><path d="m140 250h10v10h-10z" fill="#121218" opacity=".584"/><path d="m160 250h10v10h-10z" fill="#202227" opacity=".6"/><path d="m170 250h10v10h-10z" fill="#040709"/><path d="m190 250h10v10h-10z" fill="#16181d" opacity=".988"/><path d="m230 250h10v10h-10z" fill="#41464a"/><path d="m240 250h10v10h-10z" fill="#34373e" opacity=".996"/><path d="m250 250h10v10h-10z" fill="#181a21" opacity=".988"/><path d="m280 250h10v10h-10z" fill="#5c5f66"/><path d="m350 250h10v10h-10z" fill="#52545a" opacity=".996"/><g fill="#141a1f"><path d="m380 250h10v10h-10z"/><path d="m160 340h10v10h-10z"/></g><path d="m390 250h10v10h-10z" fill="#5b6164"/><path d="m420 250h10v10h-10z" fill="#121214" opacity=".616"/><path d="m440 250h10v10h-10z" fill="#0e1114" opacity=".671"/><path d="m120 260h10v10h-10z" fill="#161a1f" opacity=".992"/><path d="m170 260h10v10h-10z" fill="#000001" opacity=".996"/><path d="m240 260h10v10h-10z" fill="#2a2e34" opacity=".165"/><path d="m250 260h10v10h-10z" fill="#161b1f" opacity=".98"/><path d="m280 260h10v10h-10z" fill="#45474c" opacity=".988"/><path d="m290 260h10v10h-10z" fill="#4a4e51" opacity=".984"/><path d="m350 260h10v10h-10z" fill="#43474b" opacity=".988"/><path d="m380 260h10v10h-10z" fill="#171b1e" opacity=".992"/><path d="m390 260h10v10h-10z" fill="#44464a" opacity=".992"/><path d="m420 260h10v10h-10z" fill="#101217"/><g opacity=".996"><path d="m110 270h10v10h-10z"/><path d="m110 280h10v10h-10z"/><path d="m290 350h10v10h-10z"/></g><path d="m120 270h10v10h-10z" fill="#15191b" opacity=".992"/><path d="m170 270h10v10h-10z" fill="#000103" opacity=".992"/><path d="m190 270h10v10h-10z" fill="#17181c" opacity=".996"/><path d="m240 270h10v10h-10z" fill="#2a2f34" opacity=".145"/><path d="m250 270h10v10h-10z" fill="#15191f" opacity=".98"/><path d="m340 270h10v10h-10z" fill="#171c1e" opacity=".996"/><path d="m380 270h10v10h-10z" fill="#11151a" opacity=".984"/><path d="m430 270h10v10h-10z" fill="#151a1c" opacity=".992"/><path d="m130 280h10v10h-10z" fill="#13181d" opacity=".992"/><path d="m180 280h10v10h-10z" fill="#35383f" opacity=".004"/><g fill="#16181e" opacity=".996"><path d="m190 280h10v10h-10z"/><path d="m250 520h10v10h-10z"/></g><path d="m260 280h10v10h-10z" fill="#181b1e" opacity=".992"/><path d="m280 280h10v10h-10z" fill="#181a1f" opacity=".996"/><path d="m120 290h10v10h-10z" fill="#2e3034" opacity=".012"/><path d="m160 290h10v10h-10z" fill="#0d1013" opacity=".996"/><path d="m170 290h10v10h-10z" fill="#303338" opacity=".031"/><path d="m180 290h10v10h-10z" fill="#373b41" opacity=".008"/><path d="m410 290h10v10h-10z" fill="#44484c"/><path d="m120 300h10v10h-10z" fill="#2e3134" opacity=".016"/><path d="m160 300h10v10h-10z" fill="#090b0c" opacity=".988"/><path d="m170 300h10v10h-10z" fill="#2c2f35" opacity=".118"/><path d="m180 300h10v10h-10z" fill="#3d414a" opacity=".027"/><path d="m190 300h10v10h-10z" fill="#43484b" opacity=".996"/><g fill="#181c21" opacity=".996"><path d="m130 310h10v10h-10z"/><path d="m270 440h10v10h-10z"/></g><path d="m140 310h10v10h-10z" fill="#494c53" opacity=".984"/><path d="m170 310h10v10h-10z" fill="#07090f" opacity=".961"/><path d="m180 310h10v10h-10z" fill="#08090e"/><path d="m190 310h10v10h-10z" fill="#464b4e" opacity=".996"/><path d="m340 310h10v10h-10z" fill="#5d5e62" opacity=".012"/><path d="m350 310h10v10h-10z" fill="#575b5f" opacity=".251"/><path d="m390 310h10v10h-10z" fill="#414649" opacity=".267"/><path d="m130 320h10v10h-10z" fill="#0e1116"/><path d="m140 320h10v10h-10z" fill="#14171c" opacity=".98"/><path d="m160 320h10v10h-10z" fill="#141a1e" opacity=".996"/><path d="m170 320h10v10h-10z" fill="#1c1f23" opacity=".522"/><path d="m180 320h10v10h-10z" fill="#30353a" opacity=".016"/><path d="m190 320h10v10h-10z" fill="#14171b"/><path d="m360 320h10v10h-10z" fill="#7f8084" opacity=".996"/><path d="m370 320h10v10h-10z" fill="#7b7f80" opacity=".996"/><path d="m380 320h10v10h-10z" fill="#111216"/><path d="m390 320h10v10h-10z" fill="#11141a"/><path d="m420 320h10v10h-10z" fill="#171920" opacity=".996"/><path d="m130 330h10v10h-10z" fill="#7d7d7f"/><path d="m150 330h10v10h-10z" fill="#14171c"/><g fill="#17171f"><path d="m190 330h10v10h-10z"/><path d="m100 520h10v10h-10z"/></g><path d="m360 330h10v10h-10z" fill="#7d8082" opacity=".996"/><path d="m370 330h10v10h-10z" fill="#7a7e80"/><path d="m130 340h10v10h-10z" fill="#848487" opacity=".996"/><path d="m180 340h10v10h-10z" fill="#000102"/><path d="m190 340h10v10h-10z" fill="#41474a" opacity=".996"/><path d="m320 340h10v10h-10z" fill="#414849"/><path d="m330 340h10v10h-10z" fill="#42474b"/><path d="m350 340h10v10h-10z" fill="#19191f"/><path d="m190 350h10v10h-10z" fill="#44474c"/><path d="m350 350h10v10h-10z" fill="#161b20"/><path d="m390 350h10v10h-10z" fill="#15171d"/><path d="m400 350h10v10h-10z" fill="#43494c"/><path d="m410 350h10v10h-10z" fill="#18191e" opacity=".996"/><path d="m150 360h10v10h-10z" fill="#43484a" opacity=".996"/><path d="m160 360h10v10h-10z" fill="#080b0f"/><path d="m180 360h10v10h-10z" fill="#000103" opacity=".984"/><path d="m310 360h10v10h-10z" fill="#666c73" opacity=".992"/><path d="m330 360h10v10h-10z" fill="#595b5f"/><path d="m340 360h10v10h-10z" fill="#565b5e"/><path d="m350 360h10v10h-10z" fill="#575b5c" opacity=".996"/><path d="m360 360h10v10h-10z" fill="#55595d" opacity=".996"/><path d="m370 360h10v10h-10z" fill="#53565b" opacity=".996"/><path d="m380 360h10v10h-10z" fill="#4b4e54"/><path d="m390 360h10v10h-10z" fill="#464a4e"/><path d="m400 360h10v10h-10z" fill="#44484d" opacity=".996"/><path d="m410 360h10v10h-10z" fill="#161c1f" opacity=".996"/><path d="m150 370h10v10h-10z" fill="#0f1015"/><path d="m160 370h10v10h-10z" fill="#0b0f12" opacity=".98"/><path d="m170 370h10v10h-10z" fill="#111117"/><path d="m180 370h10v10h-10z" fill="#000001" opacity=".98"/><path d="m400 370h10v10h-10z" fill="#111619"/><g fill="#18191f" opacity=".996"><path d="m410 370h10v10h-10z"/><path d="m320 440h10v10h-10z"/></g><path d="m120 380h10v10h-10z" fill="#2f3135" opacity=".004"/><path d="m140 380h10v10h-10z" fill="#45484c" opacity=".992"/><path d="m150 380h10v10h-10z" fill="#14191e"/><g opacity=".98"><path d="m180 380h10v10h-10z"/><path d="m290 380h10v10h-10z"/></g><path d="m210 380h10v10h-10z" fill="#07080c" opacity=".949"/><path d="m220 380h10v10h-10z" fill="#141a20"/><path d="m250 380h10v10h-10z" fill="#111318" opacity=".965"/><path d="m300 380h10v10h-10z" fill="#161a20" opacity=".996"/><path d="m400 380h10v10h-10z" fill="#151b20" opacity=".996"/><path d="m410 380h10v10h-10z" fill="#181a1f" opacity=".992"/><path d="m120 390h10v10h-10z" fill="#2b2e31" opacity=".008"/><path d="m170 390h10v10h-10z" fill="#010101" opacity=".992"/><path d="m180 390h10v10h-10z" opacity=".973"/><g fill="#18191d"><path d="m230 390h10v10h-10z"/><path d="m360 440h10v10h-10z"/><path d="m110 480h10v10h-10z"/><path d="m470 490h10v10h-10z"/><path d="m360 500h10v10h-10z"/><path d="m190 510h10v10h-10z"/><path d="m290 520h10v10h-10z"/></g><path d="m250 390h10v10h-10z" fill="#15181b" opacity=".973"/><path d="m290 390h10v10h-10z" fill="#000001" opacity=".969"/><path d="m330 390h10v10h-10z" fill="#858689" opacity=".992"/><path d="m340 390h10v10h-10z" fill="#171b20"/><path d="m370 390h10v10h-10z" fill="#05070b"/><path d="m380 390h10v10h-10z" fill="#484d51" opacity=".996"/><path d="m400 390h10v10h-10z" fill="#151a1e" opacity=".957"/><path d="m120 400h10v10h-10z" fill="#282d30" opacity=".004"/><path d="m130 400h10v10h-10z" fill="#101516" opacity=".984"/><path d="m170 400h10v10h-10z" fill="#030103"/><path d="m180 400h10v10h-10z" opacity=".976"/><path d="m220 400h10v10h-10z" fill="#838286" opacity=".996"/><path d="m280 400h10v10h-10z" fill="#181a21" opacity=".996"/><path d="m310 400h10v10h-10z" fill="#8c8e90" opacity=".996"/><path d="m320 400h10v10h-10z" fill="#585a5e" opacity=".996"/><path d="m340 400h10v10h-10z" fill="#838585" opacity=".992"/><path d="m350 400h10v10h-10z" fill="#828385" opacity=".992"/><path d="m360 400h10v10h-10z" fill="#838487" opacity=".996"/><path d="m370 400h10v10h-10z" fill="#7a7c7f" opacity=".976"/><path d="m400 400h10v10h-10z" fill="#14191d" opacity=".961"/><path d="m140 410h10v10h-10z" fill="#161a1f" opacity=".988"/><path d="m160 410h10v10h-10z" fill="#020305"/><path d="m180 410h10v10h-10z" fill="#000100" opacity=".965"/><path d="m230 410h10v10h-10z" fill="#808084"/><path d="m240 410h10v10h-10z" fill="#b6b8b6" opacity=".996"/><path d="m320 410h10v10h-10z" fill="#151b1e" opacity=".996"/><path d="m340 410h10v10h-10z" fill="#43474d" opacity=".996"/><g fill="#161c1e"><path d="m360 410h10v10h-10z"/><path d="m520 520h10v10h-10z"/></g><path d="m370 410h10v10h-10z" fill="#070a0e" opacity=".996"/><path d="m380 410h10v10h-10z" fill="#46494c"/><g fill="#161a20"><path d="m390 410h10v10h-10z"/><path d="m450 510h10v10h-10z"/><path d="m140 520h10v10h-10z"/><path d="m340 520h10v10h-10z"/></g><path d="m400 410h10v10h-10z" fill="#15171e" opacity=".961"/><path d="m160 420h10v10h-10z" fill="#020204" opacity=".996"/><path d="m170 420h10v10h-10z" fill="#34343a" opacity=".012"/><path d="m230 420h10v10h-10z" fill="#7f8083"/><path d="m240 420h10v10h-10z" fill="#88898c" opacity=".996"/><path d="m250 420h10v10h-10z" fill="#747579"/><path d="m340 420h10v10h-10z" fill="#42484b"/><path d="m370 420h10v10h-10z" fill="#0e1014"/><path d="m380 420h10v10h-10z" fill="#42474d" opacity=".996"/><path d="m400 420h10v10h-10z" fill="#151a1f" opacity=".961"/><path d="m170 430h10v10h-10z" fill="#343539" opacity=".004"/><path d="m250 430h10v10h-10z" fill="#828283" opacity=".996"/><path d="m260 430h10v10h-10z" fill="#838585"/><path d="m280 430h10v10h-10z" fill="#17191d" opacity=".996"/><path d="m310 430h10v10h-10z" fill="#17181c"/><g fill="#171a1d" opacity=".996"><path d="m330 430h10v10h-10z"/><path d="m370 490h10v10h-10z"/></g><path d="m340 430h10v10h-10z" fill="#171c20"/><path d="m350 430h10v10h-10z" fill="#1a1b1f"/><g fill="#171820"><path d="m370 430h10v10h-10z"/><path d="m370 440h10v10h-10z"/></g><path d="m380 430h10v10h-10z" fill="#191d21"/><path d="m400 430h10v10h-10z" fill="#111217" opacity=".984"/><path d="m250 440h10v10h-10z" fill="#888b8c" opacity=".965"/><path d="m260 440h10v10h-10z" fill="#7e8082" opacity=".996"/><path d="m280 440h10v10h-10z" fill="#181b20" opacity=".992"/><path d="m290 440h10v10h-10z" fill="#151a1e" opacity=".996"/><path d="m300 440h10v10h-10z" fill="#141a1e"/><path d="m390 440h10v10h-10z" fill="#06080b" opacity=".98"/><path d="m170 450h10v10h-10z" fill="#303034" opacity=".008"/><path d="m260 450h10v10h-10z" fill="#7e8081" opacity=".992"/><g fill="#7b7e7f" opacity=".996"><path d="m270 450h10v10h-10z"/><path d="m280 460h10v10h-10z"/></g><path d="m280 450h10v10h-10z" fill="#7b7c7e" opacity=".996"/><path d="m300 450h10v10h-10z" fill="#151a1f" opacity=".992"/><path d="m370 450h10v10h-10z" fill="#171a1c" opacity=".996"/><path d="m180 460h10v10h-10z" fill="#030404" opacity=".976"/><path d="m260 460h10v10h-10z" fill="#646465"/><path d="m270 460h10v10h-10z" fill="#7d7d80"/><path d="m290 460h10v10h-10z" fill="#797b7f" opacity=".992"/><path d="m300 460h10v10h-10z" fill="#797a7c" opacity=".996"/><path d="m310 460h10v10h-10z" fill="#030204" opacity=".969"/><path d="m320 460h10v10h-10z" fill="#020204"/><path d="m330 460h10v10h-10z" fill="#0b0c0e" opacity=".973"/><path d="m350 460h10v10h-10z" fill="#000203"/><path d="m100 470h10v10h-10z" fill="#24262b" opacity=".004"/><path d="m180 470h10v10h-10z" fill="#040407" opacity=".969"/><path d="m270 470h10v10h-10z" fill="#7b7b7d" opacity=".996"/><path d="m280 470h10v10h-10z" fill="#7c7b7e" opacity=".996"/><path d="m290 470h10v10h-10z" fill="#7b7d7d" opacity=".996"/><path d="m300 470h10v10h-10z" fill="#7a7a7a" opacity=".984"/><path d="m330 470h10v10h-10z" fill="#36383c" opacity=".004"/><path d="m350 470h10v10h-10z" fill="#41464b"/><path d="m460 470h10v10h-10z" fill="#181821" opacity=".996"/><g fill="#181a1d"><path d="m470 470h10v10h-10z"/><path d="m430 490h10v10h-10z"/></g><path d="m480 470h10v10h-10z" fill="#17191f" opacity=".984"/><path d="m190 480h10v10h-10z" fill="#17161b" opacity=".996"/><path d="m270 480h10v10h-10z" fill="#acafb0"/><path d="m280 480h10v10h-10z" fill="#aeb0b0" opacity=".996"/><path d="m290 480h10v10h-10z" fill="#aaaeaf" opacity=".996"/><path d="m300 480h10v10h-10z" fill="#a6a8a9" opacity=".992"/><path d="m320 480h10v10h-10z" fill="#3f4346" opacity=".078"/><path d="m330 480h10v10h-10z" fill="#3c3d43" opacity=".059"/><path d="m340 480h10v10h-10z" fill="#16171b"/><path d="m360 480h10v10h-10z" fill="#16191b"/><path d="m470 480h10v10h-10z" fill="#18181e"/><path d="m70 490h10v10h-10z" fill="#020204" opacity=".988"/><path d="m80 490h10v10h-10z" fill="#0e0f13"/><g fill="#16181f"><path d="m140 490h10v10h-10z"/><path d="m230 520h10v10h-10z"/><path d="m430 520h10v10h-10z"/></g><path d="m270 490h10v10h-10z" fill="#c0bfc3" opacity=".984"/><path d="m280 490h10v10h-10z" fill="#bfbfc2" opacity=".984"/><path d="m290 490h10v10h-10z" fill="#b5b7b8"/><path d="m330 490h10v10h-10z" fill="#14171d"/><path d="m340 490h10v10h-10z" fill="#434749"/><path d="m350 490h10v10h-10z" fill="#42464a"/><path d="m490 490h10v10h-10z" fill="#18171e"/><path d="m510 490h10v10h-10z" fill="#07080d"/><path d="m520 490h10v10h-10z" fill="#020305" opacity=".867"/><path d="m70 500h10v10h-10z" fill="#07090c"/><path d="m110 500h10v10h-10z" fill="#171a1f" opacity=".996"/><path d="m120 500h10v10h-10z" fill="#17191c"/><path d="m330 500h10v10h-10z" fill="#15151c"/><path d="m520 500h10v10h-10z" fill="#0b0c0f" opacity=".737"/><path d="m70 510h10v10h-10z" fill="#080a0e" opacity=".992"/><g fill="#171b1d"><path d="m170 510h10v10h-10z"/><path d="m490 510h10v10h-10z"/></g><path d="m180 510h10v10h-10z" fill="#19191e"/><path d="m310 510h10v10h-10z" fill="#14191c" opacity=".996"/><path d="m320 510h10v10h-10z" fill="#41484a"/><path d="m330 510h10v10h-10z" fill="#41474d"/><g fill="#161b1f"><path d="m480 510h10v10h-10z"/><path d="m510 520h10v10h-10z"/></g><path d="m70 520h10v10h-10z" fill="#040607"/><path d="m90 520h10v10h-10z" fill="#18181f"/><path d="m310 520h10v10h-10z" fill="#42464d"/><path d="m370 520h10v10h-10z" fill="#171b1c"/><path d="m420 520h10v10h-10z" fill="#171c1e"/><path d="m480 520h10v10h-10z" fill="#171a1e" opacity=".996"/><path d="m530 520h10v10h-10z" fill="#161a1b" opacity=".996"/><path d="m70 530h10v10h-10z" fill="#0d0e12" opacity=".984"/><path d="m80 530h10v10h-10z" fill="#171a20" opacity=".992"/><path d="m90 530h10v10h-10z" fill="#1b1d22" opacity=".992"/><path d="m100 530h10v10h-10z" fill="#1b1e22" opacity=".984"/><g fill="#191d22" opacity=".988"><path d="m110 530h10v10h-10z"/><path d="m250 530h10v10h-10z"/></g><g fill="#191d24" opacity=".988"><path d="m120 530h10v10h-10z"/><path d="m260 530h10v10h-10z"/></g><path d="m130 530h10v10h-10z" fill="#181d21" opacity=".992"/><path d="m140 530h10v10h-10z" fill="#191c22" opacity=".992"/><g fill="#181c20" opacity=".992"><path d="m150 530h10v10h-10z"/><path d="m180 530h10v10h-10z"/><path d="m230 530h10v10h-10z"/></g><path d="m160 530h10v10h-10z" fill="#181e22" opacity=".992"/><path d="m170 530h10v10h-10z" fill="#181c22" opacity=".992"/><g fill="#191c21" opacity=".992"><path d="m190 530h10v10h-10z"/><path d="m520 530h10v10h-10z"/></g><path d="m200 530h10v10h-10z" fill="#171c21" opacity=".988"/><g fill="#181c22" opacity=".984"><path d="m210 530h10v10h-10z"/><path d="m360 530h10v10h-10z"/></g><path d="m220 530h10v10h-10z" fill="#191b21" opacity=".984"/><path d="m240 530h10v10h-10z" fill="#181d22" opacity=".984"/><path d="m270 530h10v10h-10z" fill="#191c23" opacity=".988"/><path d="m280 530h10v10h-10z" fill="#46494e" opacity=".988"/><path d="m290 530h10v10h-10z" fill="#484c50" opacity=".988"/><path d="m300 530h10v10h-10z" fill="#464a50" opacity=".992"/><path d="m310 530h10v10h-10z" fill="#1a1e23"/><path d="m320 530h10v10h-10z" fill="#181d23" opacity=".992"/><path d="m330 530h10v10h-10z" fill="#181c22" opacity=".996"/><path d="m340 530h10v10h-10z" fill="#191b22" opacity=".988"/><path d="m350 530h10v10h-10z" fill="#191c1f" opacity=".992"/><path d="m370 530h10v10h-10z" fill="#181a20" opacity=".988"/><path d="m380 530h10v10h-10z" fill="#181a20" opacity=".984"/><path d="m390 530h10v10h-10z" fill="#171c20" opacity=".992"/><path d="m400 530h10v10h-10z" fill="#161c20" opacity=".988"/><path d="m410 530h10v10h-10z" fill="#181c21" opacity=".984"/><path d="m420 530h10v10h-10z" fill="#191c20" opacity=".988"/><path d="m430 530h10v10h-10z" fill="#181c23" opacity=".992"/><path d="m440 530h10v10h-10z" fill="#161b20" opacity=".988"/><path d="m450 530h10v10h-10z" fill="#171c22" opacity=".988"/><path d="m460 530h10v10h-10z" fill="#171e22" opacity=".988"/><path d="m470 530h10v10h-10z" fill="#191b20" opacity=".992"/><path d="m480 530h10v10h-10z" fill="#161b21" opacity=".996"/><path d="m490 530h10v10h-10z" fill="#181c21" opacity=".988"/><path d="m500 530h10v10h-10z" fill="#191d24" opacity=".984"/><path d="m510 530h10v10h-10z" fill="#181c21" opacity=".992"/><path d="m530 530h10v10h-10z" fill="#15181e" opacity=".988"/></g></svg>